<mxfile host="app.diagrams.net" modified="2024-01-07T16:20:32.846Z" agent="Mozilla/5.0 (Windows NT 10.0; Win64; x64) AppleWebKit/537.36 (KHTML, like Gecko) Chrome/120.0.0.0 Safari/537.36" etag="XTcoUkYhFqXzVQU28rJ1" version="22.1.16" type="github">
  <diagram name="Page-1" id="q0cFI3X40P5cX_svibfn">
    <mxGraphModel dx="1050" dy="541" grid="1" gridSize="10" guides="1" tooltips="1" connect="1" arrows="1" fold="1" page="1" pageScale="1" pageWidth="850" pageHeight="1100" math="0" shadow="0">
      <root>
        <mxCell id="0" />
        <mxCell id="1" parent="0" />
        <mxCell id="8-RyCa22xY38dCZv3CVT-1" value="&lt;h1 style=&quot;&quot;&gt;OCP&lt;/h1&gt;&lt;p style=&quot;font-size: 13px;&quot;&gt;Open Closed Principle&lt;/p&gt;" style="text;html=1;strokeColor=#6c8ebf;fillColor=#dae8fc;spacing=5;spacingTop=-20;whiteSpace=wrap;overflow=hidden;rounded=0;align=center;" parent="1" vertex="1">
          <mxGeometry x="10" y="10" width="830" height="70" as="geometry" />
        </mxCell>
        <mxCell id="8-RyCa22xY38dCZv3CVT-2" value="&lt;h1&gt;Before&lt;/h1&gt;" style="text;html=1;strokeColor=#b85450;fillColor=#f8cecc;align=center;verticalAlign=middle;whiteSpace=wrap;rounded=0;" parent="1" vertex="1">
          <mxGeometry x="10" y="120" width="110" height="30" as="geometry" />
        </mxCell>
        <mxCell id="8-RyCa22xY38dCZv3CVT-3" value="&lt;h1&gt;After&lt;/h1&gt;" style="text;html=1;strokeColor=#82b366;fillColor=#d5e8d4;align=center;verticalAlign=middle;whiteSpace=wrap;rounded=0;" parent="1" vertex="1">
          <mxGeometry x="10" y="742" width="110" height="30" as="geometry" />
        </mxCell>
        <mxCell id="8-RyCa22xY38dCZv3CVT-5" value="&lt;p style=&quot;text-align: center; margin: 4px 0px 0px; line-height: 200%;&quot;&gt;&lt;b&gt;ExportService           &lt;/b&gt;&lt;br&gt;&lt;/p&gt;&lt;hr style=&quot;line-height: 200%;&quot; size=&quot;1&quot;&gt;&lt;p style=&quot;margin: 0px 0px 0px 4px; line-height: 200%;&quot;&gt;&lt;span style=&quot;background-color: initial;&quot;&gt;+ Export&lt;/span&gt;&lt;br&gt;&lt;/p&gt;&lt;p style=&quot;margin: 0px 0px 0px 4px; line-height: 200%;&quot;&gt;&lt;span style=&quot;background-color: initial;&quot;&gt;&lt;br&gt;&lt;/span&gt;&lt;/p&gt;&lt;p style=&quot;margin: 0px 0px 0px 4px; line-height: 200%;&quot;&gt;&lt;span style=&quot;background-color: initial;&quot;&gt;- BuildSheet&lt;/span&gt;&lt;/p&gt;&lt;p style=&quot;margin: 0px 0px 0px 4px; line-height: 200%;&quot;&gt;&lt;span style=&quot;background-color: initial;&quot;&gt;- BuildCustomSection&lt;/span&gt;&lt;/p&gt;&lt;p style=&quot;margin: 0px 0px 0px 4px; line-height: 200%;&quot;&gt;&lt;span style=&quot;background-color: initial;&quot;&gt;- BuildTotalsSection&lt;/span&gt;&lt;/p&gt;&lt;p style=&quot;margin: 0px 0px 0px 4px; line-height: 200%;&quot;&gt;&lt;span style=&quot;background-color: initial;&quot;&gt;- BuildOrdersDataSection&lt;/span&gt;&lt;/p&gt;&lt;p style=&quot;margin: 0px 0px 0px 4px; line-height: 200%;&quot;&gt;&lt;span style=&quot;background-color: initial;&quot;&gt;- CollectOrdersData&lt;/span&gt;&lt;/p&gt;&lt;p style=&quot;margin: 0px 0px 0px 4px; line-height: 200%;&quot;&gt;&lt;span style=&quot;background-color: initial;&quot;&gt;- CollectUsersData&lt;/span&gt;&lt;/p&gt;&lt;p style=&quot;margin: 0px 0px 0px 4px; line-height: 200%;&quot;&gt;&lt;span style=&quot;background-color: initial;&quot;&gt;- AddSummary&lt;/span&gt;&lt;/p&gt;&lt;p style=&quot;margin: 0px 0px 0px 4px; line-height: 200%;&quot;&gt;&lt;span style=&quot;background-color: initial;&quot;&gt;- AddHeaderSection&lt;/span&gt;&lt;/p&gt;&lt;p style=&quot;margin: 0px 0px 0px 4px; line-height: 200%;&quot;&gt;&lt;span style=&quot;background-color: initial;&quot;&gt;- AddFooterSection&lt;/span&gt;&lt;/p&gt;&lt;p style=&quot;margin: 0px 0px 0px 4px; line-height: 200%;&quot;&gt;&lt;span style=&quot;background-color: initial;&quot;&gt;- ApplySpecialStyling&lt;/span&gt;&lt;/p&gt;&lt;p style=&quot;margin: 0px 0px 0px 4px; line-height: 200%;&quot;&gt;&lt;span style=&quot;background-color: initial;&quot;&gt;- SetCellValue&lt;/span&gt;&lt;/p&gt;" style="verticalAlign=top;align=left;overflow=fill;fontSize=12;fontFamily=Helvetica;html=1;whiteSpace=wrap;" parent="1" vertex="1">
          <mxGeometry x="450" y="148" width="240" height="360" as="geometry" />
        </mxCell>
        <mxCell id="8-RyCa22xY38dCZv3CVT-6" value="&lt;p style=&quot;margin: 4px 0px 0px; text-align: center; line-height: 180%;&quot;&gt;&lt;b&gt;Orders&lt;/b&gt;&lt;br&gt;&lt;/p&gt;&lt;hr style=&quot;line-height: 180%;&quot; size=&quot;1&quot;&gt;&lt;p style=&quot;margin: 0px 0px 0px 4px; line-height: 180%;&quot;&gt;&lt;/p&gt;&lt;p style=&quot;border-color: var(--border-color); margin: 0px 0px 0px 4px; line-height: 24px;&quot;&gt;+ Export&lt;br&gt;&lt;/p&gt;" style="verticalAlign=top;align=left;overflow=fill;fontSize=12;fontFamily=Helvetica;html=1;whiteSpace=wrap;" parent="1" vertex="1">
          <mxGeometry x="110" y="210" width="210" height="100" as="geometry" />
        </mxCell>
        <mxCell id="8-RyCa22xY38dCZv3CVT-7" value="" style="endArrow=none;html=1;rounded=0;" parent="1" edge="1">
          <mxGeometry width="50" height="50" relative="1" as="geometry">
            <mxPoint x="10" y="712" as="sourcePoint" />
            <mxPoint x="840" y="712" as="targetPoint" />
          </mxGeometry>
        </mxCell>
        <mxCell id="8-RyCa22xY38dCZv3CVT-38" style="edgeStyle=orthogonalEdgeStyle;rounded=0;orthogonalLoop=1;jettySize=auto;html=1;entryX=1;entryY=0.5;entryDx=0;entryDy=0;" parent="1" source="8-RyCa22xY38dCZv3CVT-14" target="8-RyCa22xY38dCZv3CVT-27" edge="1">
          <mxGeometry relative="1" as="geometry">
            <mxPoint x="250" y="872" as="targetPoint" />
          </mxGeometry>
        </mxCell>
        <mxCell id="8-RyCa22xY38dCZv3CVT-14" value="&lt;p style=&quot;margin: 4px 0px 0px; text-align: center; line-height: 180%;&quot;&gt;&lt;b&gt;LimitedExportStrategy&lt;/b&gt;&lt;br&gt;&lt;/p&gt;&lt;hr style=&quot;line-height: 180%;&quot; size=&quot;1&quot;&gt;&lt;p style=&quot;margin: 0px 0px 0px 4px; line-height: 180%;&quot;&gt;&lt;/p&gt;&lt;p style=&quot;border-color: var(--border-color); margin: 0px 0px 0px 4px; line-height: 24px;&quot;&gt;- _exportHelper: IExportBaseHelper&lt;/p&gt;&lt;hr style=&quot;border-color: var(--border-color); line-height: 24px;&quot; size=&quot;1&quot;&gt;&lt;p style=&quot;border-color: var(--border-color); margin: 0px 0px 0px 4px; line-height: 24px;&quot;&gt;+ ExportData&amp;nbsp;&lt;/p&gt;&lt;p style=&quot;border-color: var(--border-color); margin: 0px 0px 0px 4px; line-height: 24px;&quot;&gt;&lt;br style=&quot;border-color: var(--border-color);&quot;&gt;&lt;/p&gt;&lt;p style=&quot;border-color: var(--border-color); margin: 0px 0px 0px 4px; line-height: 24px;&quot;&gt;&lt;br&gt;&lt;/p&gt;" style="verticalAlign=top;align=left;overflow=fill;fontSize=12;fontFamily=Helvetica;html=1;whiteSpace=wrap;" parent="1" vertex="1">
          <mxGeometry x="350" y="982" width="210" height="110" as="geometry" />
        </mxCell>
        <mxCell id="8-RyCa22xY38dCZv3CVT-27" value="&lt;p style=&quot;margin: 4px 0px 0px; text-align: center; line-height: 180%;&quot;&gt;&lt;i&gt;&amp;lt;&amp;lt;Interface&amp;gt;&amp;gt;&lt;/i&gt;&lt;br&gt;&lt;b&gt;IExportStrategy&lt;/b&gt;&lt;br&gt;&lt;/p&gt;&lt;hr style=&quot;line-height: 180%;&quot; size=&quot;1&quot;&gt;&lt;p style=&quot;margin: 0px 0px 0px 4px; line-height: 180%;&quot;&gt;&lt;/p&gt;&lt;p style=&quot;border-color: var(--border-color); margin: 0px 0px 0px 4px; line-height: 24px;&quot;&gt;&lt;span style=&quot;background-color: initial;&quot;&gt;+ Export&lt;/span&gt;&lt;br&gt;&lt;/p&gt;&lt;p style=&quot;border-color: var(--border-color); margin: 0px 0px 0px 4px; line-height: 24px;&quot;&gt;&lt;br&gt;&lt;/p&gt;" style="verticalAlign=top;align=left;overflow=fill;fontSize=12;fontFamily=Helvetica;html=1;whiteSpace=wrap;" parent="1" vertex="1">
          <mxGeometry x="70" y="948.5" width="160" height="100" as="geometry" />
        </mxCell>
        <mxCell id="8-RyCa22xY38dCZv3CVT-29" value="" style="endArrow=none;html=1;rounded=0;" parent="1" edge="1">
          <mxGeometry width="50" height="50" relative="1" as="geometry">
            <mxPoint x="10" y="1302" as="sourcePoint" />
            <mxPoint x="840" y="1302" as="targetPoint" />
          </mxGeometry>
        </mxCell>
        <mxCell id="8-RyCa22xY38dCZv3CVT-30" value="" style="endArrow=none;html=1;rounded=0;" parent="1" edge="1">
          <mxGeometry width="50" height="50" relative="1" as="geometry">
            <mxPoint x="10" y="100" as="sourcePoint" />
            <mxPoint x="840" y="100" as="targetPoint" />
          </mxGeometry>
        </mxCell>
        <mxCell id="8-RyCa22xY38dCZv3CVT-31" style="edgeStyle=orthogonalEdgeStyle;rounded=0;orthogonalLoop=1;jettySize=auto;html=1;entryX=-0.013;entryY=0.31;entryDx=0;entryDy=0;entryPerimeter=0;" parent="1" source="8-RyCa22xY38dCZv3CVT-6" target="8-RyCa22xY38dCZv3CVT-5" edge="1">
          <mxGeometry relative="1" as="geometry" />
        </mxCell>
        <mxCell id="8-RyCa22xY38dCZv3CVT-37" style="edgeStyle=orthogonalEdgeStyle;rounded=0;orthogonalLoop=1;jettySize=auto;html=1;entryX=1;entryY=0.25;entryDx=0;entryDy=0;" parent="1" source="8-RyCa22xY38dCZv3CVT-32" target="8-RyCa22xY38dCZv3CVT-27" edge="1">
          <mxGeometry relative="1" as="geometry" />
        </mxCell>
        <mxCell id="8-RyCa22xY38dCZv3CVT-32" value="&lt;p style=&quot;margin: 4px 0px 0px; text-align: center; line-height: 180%;&quot;&gt;&lt;b&gt;FullExportStrategy&lt;/b&gt;&lt;br&gt;&lt;/p&gt;&lt;hr style=&quot;line-height: 180%;&quot; size=&quot;1&quot;&gt;&lt;p style=&quot;margin: 0px 0px 0px 4px; line-height: 180%;&quot;&gt;&lt;/p&gt;&lt;p style=&quot;border-color: var(--border-color); margin: 0px 0px 0px 4px; line-height: 24px;&quot;&gt;- _exportHelper: IExportBaseHelper&lt;/p&gt;&lt;hr style=&quot;border-color: var(--border-color); line-height: 24px;&quot; size=&quot;1&quot;&gt;&lt;p style=&quot;border-color: var(--border-color); margin: 0px 0px 0px 4px; line-height: 24px;&quot;&gt;+ ExportData&amp;nbsp;&lt;/p&gt;&lt;p style=&quot;border-color: var(--border-color); margin: 0px 0px 0px 4px; line-height: 24px;&quot;&gt;&lt;br&gt;&lt;/p&gt;&lt;p style=&quot;border-color: var(--border-color); margin: 0px 0px 0px 4px; line-height: 24px;&quot;&gt;&lt;span style=&quot;background-color: initial;&quot;&gt;- BuildCustomSection&lt;/span&gt;&lt;/p&gt;&lt;p style=&quot;border-color: var(--border-color); margin: 0px 0px 0px 4px; line-height: 24px;&quot;&gt;&lt;span style=&quot;background-color: initial;&quot;&gt;- BuildTotalsSection&lt;/span&gt;&lt;/p&gt;&lt;p style=&quot;border-color: var(--border-color); margin: 0px 0px 0px 4px; line-height: 24px;&quot;&gt;- ApplySpecialStyling&lt;/p&gt;" style="verticalAlign=top;align=left;overflow=fill;fontSize=12;fontFamily=Helvetica;html=1;whiteSpace=wrap;" parent="1" vertex="1">
          <mxGeometry x="350" y="752" width="210" height="210" as="geometry" />
        </mxCell>
        <mxCell id="8-RyCa22xY38dCZv3CVT-39" style="edgeStyle=orthogonalEdgeStyle;rounded=0;orthogonalLoop=1;jettySize=auto;html=1;exitX=0;exitY=0.5;exitDx=0;exitDy=0;entryX=1;entryY=0.75;entryDx=0;entryDy=0;" parent="1" source="8-RyCa22xY38dCZv3CVT-33" target="8-RyCa22xY38dCZv3CVT-27" edge="1">
          <mxGeometry relative="1" as="geometry" />
        </mxCell>
        <mxCell id="8-RyCa22xY38dCZv3CVT-43" style="edgeStyle=orthogonalEdgeStyle;rounded=0;orthogonalLoop=1;jettySize=auto;html=1;exitX=1;exitY=0.25;exitDx=0;exitDy=0;entryX=0;entryY=0.75;entryDx=0;entryDy=0;dashed=1;" parent="1" source="8-RyCa22xY38dCZv3CVT-33" target="8-RyCa22xY38dCZv3CVT-40" edge="1">
          <mxGeometry relative="1" as="geometry" />
        </mxCell>
        <mxCell id="8-RyCa22xY38dCZv3CVT-33" value="&lt;p style=&quot;margin: 4px 0px 0px; text-align: center; line-height: 180%;&quot;&gt;&lt;b&gt;SummaryExportStrategy&lt;/b&gt;&lt;br&gt;&lt;/p&gt;&lt;hr style=&quot;line-height: 180%;&quot; size=&quot;1&quot;&gt;&lt;p style=&quot;margin: 0px 0px 0px 4px; line-height: 180%;&quot;&gt;&lt;/p&gt;&lt;p style=&quot;border-color: var(--border-color); margin: 0px 0px 0px 4px; line-height: 24px;&quot;&gt;- _exportHelper: IExportBaseHelper&lt;/p&gt;&lt;hr style=&quot;border-color: var(--border-color); line-height: 24px;&quot; size=&quot;1&quot;&gt;&lt;p style=&quot;border-color: var(--border-color); margin: 0px 0px 0px 4px; line-height: 24px;&quot;&gt;+ ExportData&amp;nbsp;&lt;/p&gt;&lt;p style=&quot;border-color: var(--border-color); margin: 0px 0px 0px 4px; line-height: 24px;&quot;&gt;&lt;br&gt;&lt;/p&gt;&lt;p style=&quot;border-color: var(--border-color); margin: 0px 0px 0px 4px; line-height: 24px;&quot;&gt;- AddSummary&lt;/p&gt;" style="verticalAlign=top;align=left;overflow=fill;fontSize=12;fontFamily=Helvetica;html=1;whiteSpace=wrap;" parent="1" vertex="1">
          <mxGeometry x="350" y="1112" width="210" height="160" as="geometry" />
        </mxCell>
        <mxCell id="8-RyCa22xY38dCZv3CVT-40" value="&lt;p style=&quot;margin: 4px 0px 0px; text-align: center; line-height: 180%;&quot;&gt;&lt;i&gt;&amp;lt;&amp;lt;Interface&amp;gt;&amp;gt;&lt;/i&gt;&lt;br&gt;&lt;b&gt;IExporterBaseHelper&lt;/b&gt;&lt;br&gt;&lt;/p&gt;&lt;hr style=&quot;line-height: 180%;&quot; size=&quot;1&quot;&gt;&lt;p style=&quot;margin: 0px 0px 0px 4px; line-height: 180%;&quot;&gt;&lt;/p&gt;&lt;p style=&quot;border-color: var(--border-color); margin: 0px 0px 0px 4px; line-height: 24px;&quot;&gt;&lt;span style=&quot;background-color: initial;&quot;&gt;+ BuildSheet&lt;/span&gt;&lt;/p&gt;&lt;p style=&quot;border-color: var(--border-color); margin: 0px 0px 0px 4px; line-height: 24px;&quot;&gt;+ CollectOrdersData&lt;/p&gt;&lt;p style=&quot;border-color: var(--border-color); margin: 0px 0px 0px 4px; line-height: 24px;&quot;&gt;&lt;span style=&quot;border-color: var(--border-color); background-color: initial;&quot;&gt;+ CollectUsersData&lt;/span&gt;&lt;/p&gt;&lt;p style=&quot;border-color: var(--border-color); margin: 0px 0px 0px 4px; line-height: 24px;&quot;&gt;+ SetCellValue&lt;/p&gt;&lt;p style=&quot;border-color: var(--border-color); margin: 0px 0px 0px 4px; line-height: 24px;&quot;&gt;+ AddHeaderSection&lt;/p&gt;&lt;p style=&quot;border-color: var(--border-color); margin: 0px 0px 0px 4px; line-height: 24px;&quot;&gt;+ AddFooterSection&lt;/p&gt;" style="verticalAlign=top;align=left;overflow=fill;fontSize=12;fontFamily=Helvetica;html=1;whiteSpace=wrap;" parent="1" vertex="1">
          <mxGeometry x="610" y="892" width="180" height="240" as="geometry" />
        </mxCell>
        <mxCell id="8-RyCa22xY38dCZv3CVT-41" style="edgeStyle=orthogonalEdgeStyle;rounded=0;orthogonalLoop=1;jettySize=auto;html=1;exitX=1;exitY=0.5;exitDx=0;exitDy=0;entryX=-0.024;entryY=0.437;entryDx=0;entryDy=0;entryPerimeter=0;dashed=1;" parent="1" source="8-RyCa22xY38dCZv3CVT-32" target="8-RyCa22xY38dCZv3CVT-40" edge="1">
          <mxGeometry relative="1" as="geometry" />
        </mxCell>
        <mxCell id="8-RyCa22xY38dCZv3CVT-42" style="edgeStyle=orthogonalEdgeStyle;rounded=0;orthogonalLoop=1;jettySize=auto;html=1;exitX=1;exitY=0.5;exitDx=0;exitDy=0;entryX=-0.01;entryY=0.605;entryDx=0;entryDy=0;entryPerimeter=0;dashed=1;" parent="1" source="8-RyCa22xY38dCZv3CVT-14" target="8-RyCa22xY38dCZv3CVT-40" edge="1">
          <mxGeometry relative="1" as="geometry" />
        </mxCell>
        <mxCell id="nqYiFTc04Yu14vajn4B6-1" value="&lt;h1 style=&quot;&quot;&gt;OCP&lt;/h1&gt;&lt;p style=&quot;font-size: 13px;&quot;&gt;Open Closed Principle&lt;/p&gt;" style="text;html=1;strokeColor=#6c8ebf;fillColor=#dae8fc;spacing=5;spacingTop=-20;whiteSpace=wrap;overflow=hidden;rounded=0;align=center;" vertex="1" parent="1">
          <mxGeometry x="10" y="630" width="830" height="70" as="geometry" />
        </mxCell>
      </root>
    </mxGraphModel>
  </diagram>
</mxfile>
